# AST/ASF file generated using VICON BodyLanguage
# -----------------------------------------------
:version 1.10
:name VICON
:units
  mass 1.0
  length 0.45
  angle deg
:documentation
   .ast/.asf automatically generated from VICON data using
   VICON BodyBuilder and BodyLanguage model FoxedUp or BRILLIANT.MOD
:root
   order TX TY TZ RX RY RZ
   axis XYZ
   position 0 0 0  
   orientation 0 0 0 
:bonedata
  begin
     id 1 
     name lhipjoint
     direction 0.62366 -0.717238 0.310833 
     length 2.53602 
     axis 0 0 0  XYZ
  end
  begin
     id 2 
     name lfemur
     direction 0.34202 -0.939693 0  
     length 7.40817  
     axis 0 0 20  XYZ
    dof rx ry rz
    limits (-160.0 20.0)
           (-70.0 70.0)
           (-60.0 70.0)
  end
  begin
     id 3 
     name ltibia
     direction 0.34202 -0.939693 0   
     length 7.7045   
     axis 0 0 20   XYZ
    dof rx
    limits (-10.0 170.0)
  end
  begin
     id 4 
     name lfoot
     direction 0.0673888 -0.185149 0.980397   
     length 2.09456   
     axis -90 7.62852e-016 20   XYZ
    dof rx rz
    limits (-45.0 90.0)
           (-70.0 20.0)
  end
  begin
     id 5 
     name ltoes
     direction 1.53575e-011 -4.21994e-011 1   
     length 1.05543   
     axis -90 7.62852e-016 20   XYZ
    dof rx
    limits (-90.0 20.0)
  end
  begin
     id 6 
     name rhipjoint
     direction -0.489018 -0.800347 0.346851   
     length 2.27268  
     axis 0 0 0  XYZ 
  end
  begin
     id 7 
     name rfemur
     direction -0.34202 -0.939693 0   
     length 7.55487   
     axis 0 0 -20   XYZ
    dof rx ry rz
    limits (-160.0 20.0)
           (-70.0 70.0)
           (-70.0 60.0)
  end
  begin
     id 8 
     name rtibia
     direction -0.34202 -0.939693 0   
     length 7.78969   
     axis 0 0 -20   XYZ
    dof rx
    limits (-10.0 170.0)
 end
 begin
     id 9 
     name rfoot
     direction -0.0859318 -0.236096 0.967923   
     length 2.19143  
     axis -90 -7.62852e-016 -20   XYZ
    dof rx rz
    limits (-45.0 90.0)
           (-20.0 70.0)
  end
  begin
     id 10 
     name rtoes
     direction -1.53538e-011 -4.21989e-011 1   
     length 1.09845   
     axis -90 -7.62852e-016 -20   XYZ
    dof rx
    limits (-90.0 20.0)
  end
  begin
     id 11 
     name lowerback
     direction -0.00762546 0.998978 -0.0445553   
     length 1.98161   
     axis 0 0 0   XYZ
    dof rx ry rz
    limits (-20.0 45.0)
           (-30.0 30.0)
           (-30.0 30.0)
  end
  begin
     id 12 
     name upperback
     direction 0.0422361 0.998867 -0.0219156   
     length 1.97558   
     axis 0 0 0   XYZ
    dof rx ry rz
    limits (-20.0 45.0)
           (-30.0 30.0)
           (-30.0 30.0)
  end
  begin
     id 13 
     name thorax
     direction 0.0442465 0.999021 7.47603e-005   
     length 1.97799   
     axis 0 0 0   XYZ
    dof rx ry rz
    limits (-20.0 45.0)
           (-30.0 30.0)
           (-30.0 30.0)
  end
  begin
     id 14 
     name lowerneck
     direction 0.00312169 0.984641 0.174564   
     length 1.78995   
     axis 0 0 0   XYZ
    dof rx ry rz
    limits (-20.0 45.0)
           (-30.0 30.0)
           (-30.0 30.0)
  end
  begin
     id 15 
     name upperneck
     direction -0.0383028 0.985255 -0.166749   
     length 1.83053   
     axis 0 0 0   XYZ
    dof rx ry rz
    limits (-20.0 45.0)
           (-30.0 30.0)
           (-30.0 30.0)
  end
  begin
     id 16
     name head
     direction -0.0129546 0.997059 -0.0755386  
     length 1.84088  
     axis 0 0 0   XYZ
    dof rx ry rz
    limits (-20.0 45.0)
           (-30.0 30.0)
           (-30.0 30.0)
  end
  begin
     id 17 
     name lclavicle
     direction 0.912857 0.370519 -0.171488  
     length 3.51279  
     axis 0 0 0   XYZ
    dof ry rz
    limits (-20.0 10.0)
           (0.0 20.0)
  end
  begin
     id 18 
     name lhumerus
     direction 1 -4.48962e-011 3.64361e-027   
     length 4.95663   
     axis 180 -30 -90   XYZ
    dof rx ry rz
    limits (-60.0 90.0)
           (-90.0 90.0)
           (-90.0 90.0)
  end
  begin
     id 19
     name lradius
     direction 1 -4.48974e-011 5.97202e-027   
     length 3.38177   
     axis 180 -30 -90   XYZ
    dof rx
    limits (-10.0 170.0)
  end
  begin
     id 20
     name lwrist
     direction 1 -4.4896e-011 9.83288e-027   
     length 1.69088   
     axis -9.31221e-015 90 90   XYZ
    dof ry
    limits (-180.0 0.0)
 end
  begin
     id 21 
     name lhand
     direction 1 -4.4902e-011 1.96551e-026   
     length 0.662909   
     axis -1.25475e-014 90 90   XYZ
    dof rx rz
    limits (-90.0 90.0)
           (-45.0 45.0)
  end
  begin
     id 22 
     name lfingers
     direction 1 -4.48971e-011 3.93277e-026   
     length 0.534454   
     axis -2.50945e-014 90 90   XYZ
    dof rx
    limits (0.0 90.0)
  end
  begin
     id 23
     name lthumb
     direction 0.707107 -6.34933e-011 0.707107   
     length 0.767373   
     axis -90 45 -4.80359e-014   XYZ
    dof rx rz
    limits (-45.0 45.0)
           (-45.0 45.0)
  end
  begin
     id 24 
     name rclavicle
     direction -0.900919 0.395364 -0.178976   
     length 3.40627  
     axis 0 0 0   XYZ 
    dof ry rz
    limits (-10.0 20.0)
           (-20.0 0.0)
  end
  begin
     id 25 
     name rhumerus
     direction -1 -4.48969e-011 1.03875e-027  
     length 5.08365   
     axis 180 30 90   XYZ
    dof rx ry rz
    limits (-90.0 60.0)
           (-90.0 90.0)
           (-90.0 90.0)
  end
  begin
     id 26 
     name rradius
     direction -1 -4.48951e-011 5.02733e-027   
     length 3.35984   
     axis 180 30 90   XYZ
    dof rx
    limits (-10.0 170.0)
  end
  begin
     id 27 
     name rwrist
     direction -1 -4.49011e-011 9.82828e-027   
     length 1.67992   
     axis -9.31221e-015 -90 -90   XYZ
    dof ry
    limits (-180.0 0.0)
  end
  begin
     id 28
     name rhand
     direction -1 -4.48894e-011 1.96774e-026   
     length 0.820764   
     axis -1.25475e-014 -90 -90   XYZ
    dof rx rz
    limits (-90.0 90.0)
           (-45.0 45.0)
  end
  begin
     id 29
     name rfingers
     direction -1 -4.49095e-011 3.92833e-026   
     length 0.661721   
     axis -2.50945e-014 -90 -90   XYZ
    dof rx
    limits (0.0 90.0)
  end
  begin
     id 30
     name rthumb
     direction -0.707107 -6.34881e-011 0.707107   
     length 0.950103   
     axis -90 -45 4.80359e-014   XYZ
    dof rx rz
    limits (-45.0 45.0)
           (-45.0 45.0)
  end
:hierarchy
  begin
    root lhipjoint rhipjoint lowerback
    lhipjoint lfemur
    lfemur ltibia
    ltibia lfoot
    lfoot ltoes
    rhipjoint rfemur
    rfemur rtibia
    rtibia rfoot
    rfoot rtoes
    lowerback upperback
    upperback thorax
    thorax lowerneck lclavicle rclavicle
    lowerneck upperneck
    upperneck head
    lclavicle lhumerus
    lhumerus lradius
    lradius lwrist
    lwrist lhand lthumb
    lhand lfingers
    rclavicle rhumerus
    rhumerus rradius
    rradius rwrist
    rwrist rhand rthumb
    rhand rfingers
  end

#!OML:ASF I:\golf\golf\golf 2\Subject 1\2002-09-07\Subject1.ASF
:FULLY-SPECIFIED
:DEGREES
49
root 0.899771 17.8128 -7.93983 9.40108 -4.61452 -7.56573
lowerback -4.3216 0.961828 0.988786
upperback 0.735365 1.06195 5.34434
thorax 3.10449 0.497163 5.06312
lowerneck -16.9856 0.600166 0.512205
upperneck 41.4942 3.71214 -6.77303
head 18.8055 0.595676 -2.59495
rclavicle 4.07509e-015 1.59028e-015
rhumerus -25.3666 1.1769 -83.7703
rradius 25.742
rwrist -8.68327
rhand -21.5563 12.606
rfingers 7.12502
rthumb 4.8372 -17.3188
lclavicle 4.07509e-015 1.59028e-015
lhumerus -25.8057 -4.943 92.6832
lradius 24.5053
lwrist 0.933826
lhand -12.3759 30.4358
lfingers 7.12502
lthumb 13.6947 59.9652
rfemur -17.299 1.84836 25.3846
rtibia 31.1587
rfoot -17.636 -6.59268
rtoes -2.08362
lfemur -23.4324 2.82155 -12.2922
ltibia 38.9731
lfoot -19.6506 5.27271
ltoes -7.70065
50
root 0.902995 17.8126 -7.93799 9.49369 -4.54104 -7.59283
lowerback -4.31589 0.91829 1.01837
upperback 0.758858 0.999287 5.39953
thorax 3.13037 0.465291 5.10078
lowerneck -17.1226 0.635693 0.45065
upperneck 41.6296 3.83674 -6.84284
head 18.9412 0.621986 -2.60209
rclavicle 1.39149e-014 2.06736e-014
rhumerus -25.2895 1.34838 -83.7126
rradius 25.7782
rwrist -8.7958
rhand -21.5545 12.5312
rfingers 7.12502
rthumb 4.83896 -17.3936
lclavicle 1.39149e-014 2.06736e-014
lhumerus -25.7861 -4.71452 92.6992
lradius 24.3922
lwrist 0.789444
lhand -12.1892 30.4787
lfingers 7.12502
lthumb 13.8747 59.9959
rfemur -17.3732 1.82653 25.4024
rtibia 31.1189
rfoot -17.7387 -6.45619
rtoes -0.669333
lfemur -23.5565 2.72606 -12.2608
ltibia 39.0404
lfoot -19.672 5.29518
ltoes -7.91621
51
root 0.906983 17.8129 -7.93659 9.51185 -4.49346 -7.64422
lowerback -4.2324 0.898065 1.09332
upperback 0.800853 0.968315 5.43624
thorax 3.13005 0.450377 5.09359
lowerneck -17.1731 0.639318 0.364464
upperneck 41.6831 3.87631 -6.83151
head 18.9906 0.623844 -2.57641
rclavicle 1.2921e-014 1.59028e-015
rhumerus -25.2377 1.477 -83.6852
rradius 25.8214
rwrist -8.84168
rhand -21.582 12.3075
rfingers 7.12502
rthumb 4.81237 -17.6178
lclavicle 1.2921e-014 1.59028e-015
lhumerus -25.7456 -4.54171 92.7038
lradius 24.2811
lwrist 0.688598
lhand -12.0513 30.4146
lfingers 7.12502
lthumb 14.0076 59.9227
rfemur -17.3485 1.80281 25.4428
rtibia 31.0513
rfoot -17.8119 -6.30812
rtoes 0.397481
lfemur -23.5856 2.76177 -12.2156
ltibia 39.0767
lfoot -19.6894 5.21116
ltoes -8.00113
52
root 0.912069 17.8128 -7.93715 9.49247 -4.56548 -7.76098
lowerback -4.05551 0.921561 1.23225
upperback 0.829037 0.997833 5.46185
thorax 3.05912 0.467759 5.0395
lowerneck -17.1354 0.653705 0.306065
upperneck 41.705 3.89936 -6.78039
head 18.992 0.630801 -2.53683
rclavicle -1.0138e-014 -5.40694e-014
rhumerus -25.2492 1.58761 -83.6958
rradius 25.8771
rwrist -8.8529
rhand -21.6773 12.1147
rfingers 7.12502
rthumb 4.72041 -17.8127
lclavicle -1.0138e-014 -5.40694e-014
lhumerus -25.749 -4.42346 92.6878
lradius 24.1633
lwrist 0.527399
lhand -11.863 30.1556
lfingers 7.12502
lthumb 14.189 59.651
rfemur -17.2895 1.85486 25.5403
rtibia 30.9832
rfoot -17.722 -6.31807
rtoes -0.103809
lfemur -23.5796 2.7787 -12.0996
ltibia 39.1103
lfoot -19.6947 5.2158
ltoes -7.71946
53
root 0.91807 17.8126 -7.93277 9.55152 -4.54136 -7.7464
lowerback -4.05922 0.90838 1.26275
upperback 0.831794 0.978749 5.4449
thorax 3.06632 0.458821 5.00316
lowerneck -17.0638 0.664839 0.315715
upperneck 41.7385 3.93256 -6.82328
head 18.9978 0.640413 -2.55422
rclavicle -1.16289e-014 4.21423e-014
rhumerus -25.2678 1.67317 -83.7009
rradius 25.899
rwrist -8.88039
rhand -21.7608 11.9759
rfingers 7.12502
rthumb 4.63976 -17.9533
lclavicle -1.16289e-014 4.21423e-014
lhumerus -25.7779 -4.30427 92.6669
lradius 24.0204
lwrist 0.350733
lhand -11.7407 30.061
lfingers 7.12502
lthumb 14.3068 59.5481
rfemur -17.3069 1.83057 25.4986
rtibia 30.9131
rfoot -17.6944 -6.28103
rtoes 0.149391
lfemur -23.6431 2.63785 -12.1027
ltibia 39.1307
lfoot -19.707 5.00381
ltoes -5.52354
54
root 0.925814 17.8149 -7.926 9.59578 -4.66783 -7.64799
lowerback -4.05522 0.930489 1.17871
upperback 0.827923 1.01392 5.41865
thorax 3.05625 0.475281 5.02533
lowerneck -16.9632 0.670911 0.315068
upperneck 41.7899 3.96366 -6.87052
head 19.0066 0.647212 -2.57312
rclavicle -1.14301e-014 -1.90833e-014
rhumerus -25.3156 1.78438 -83.6762
rradius 25.8866
rwrist -8.9248
rhand -21.7951 12.0776
rfingers 7.12502
rthumb 4.60662 -17.8523
lclavicle -1.14301e-014 -1.90833e-014
lhumerus -25.9369 -4.16869 92.6742
lradius 24.0198
lwrist 0.334063
lhand -11.8429 30.1537
lfingers 7.12502
lthumb 14.2084 59.6478
rfemur -17.3214 1.7829 25.3314
rtibia 30.8581
rfoot -17.7325 -6.03399
rtoes 0.830059
lfemur -23.6399 2.6588 -12.2541
ltibia 39.1395
lfoot -19.7353 4.83586
ltoes -3.38159
55
root 0.93065 17.8161 -7.92066 9.61776 -4.68662 -7.70671
lowerback -3.98159 0.912318 1.17071
upperback 0.837806 0.990518 5.49209
thorax 3.02559 0.462868 5.10429
lowerneck -16.9292 0.694146 0.247141
upperneck 41.8455 4.02868 -6.86989
head 19.0362 0.66178 -2.55018
rclavicle -2.0773e-014 -3.97569e-015
rhumerus -25.3186 1.94006 -83.6081
rradius 25.8771
rwrist -9.01517
rhand -21.7548 12.2959
rfingers 7.12502
rthumb 4.64558 -17.6332
lclavicle -2.0773e-014 -3.97569e-015
lhumerus -25.9876 -3.89109 92.6953
lradius 23.8949
lwrist 0.250225
lhand -11.8765 30.2851
lfingers 7.12502
lthumb 14.176 59.7814
rfemur -17.3085 1.79564 25.3772
rtibia 30.8375
rfoot -17.7858 -6.05373
rtoes 0.704251
lfemur -23.6489 2.68786 -12.2023
ltibia 39.1351
lfoot -19.8092 4.75952
ltoes -2.55175
56
root 0.934053 17.8128 -7.91612 9.67261 -4.63427 -7.82534
lowerback -3.99677 0.902655 1.27406
upperback 0.881201 0.9678 5.53396
thorax 3.0821 0.452004 5.08967
lowerneck -16.9215 0.697763 0.222391
upperneck 41.8739 4.04805 -6.87488
head 19.0535 0.664624 -2.54576
rclavicle 2.06736e-014 -2.46493e-014
rhumerus -25.2535 1.85957 -83.5585
rradius 25.8613
rwrist -9.01325
rhand -21.6983 12.3559
rfingers 7.12502
rthumb 4.70012 -17.572
lclavicle 2.06736e-014 -2.46493e-014
lhumerus -25.9444 -3.64388 92.6368
lradius 23.7878
lwrist -0.150384
lhand -11.5012 30.374
lfingers 7.12502
lthumb 14.5376 59.8447
rfemur -17.3376 1.83841 25.5058
rtibia 30.8484
rfoot -17.7937 -6.21146
rtoes 0.217147
lfemur -23.6999 2.62175 -12.0461
ltibia 39.1229
lfoot -19.8669 4.64058
ltoes -1.84871
57
root 0.940196 17.8106 -7.91123 9.78447 -4.71626 -7.80389
lowerback -4.10308 0.929686 1.29503
upperback 0.924961 0.996834 5.48874
thorax 3.18622 0.466035 5.03568
lowerneck -16.9013 0.692086 0.252607
upperneck 41.9001 4.04208 -6.90634
head 19.066 0.662886 -2.56944
rclavicle 3.97569e-016 -5.88403e-014
rhumerus -25.149 1.63709 -83.5331
rradius 25.7847
rwrist -8.87026
rhand -21.6477 12.3134
rfingers 7.12502
rthumb 4.74899 -17.6134
lclavicle 3.97569e-016 -5.88403e-014
lhumerus -25.9389 -3.46984 92.5411
lradius 23.759
lwrist -0.552126
lhand -11.1671 30.5063
lfingers 7.12502
lthumb 14.8595 59.9534
rfemur -17.4643 1.82855 25.4403
rtibia 30.879
rfoot -17.7824 -6.1306
rtoes 0.0632765
lfemur -23.7874 2.6034 -12.0972
ltibia 39.1089
lfoot -19.841 4.69742
ltoes -1.84688
58
root 0.947832 17.8098 -7.90929 9.85393 -4.82429 -7.70716
lowerback -4.11565 0.951115 1.20337
upperback 0.960678 1.0289 5.45842
thorax 3.2267 0.479956 5.05912
lowerneck -16.8627 0.702319 0.277743
upperneck 41.898 4.06675 -6.95217
head 19.0585 0.671109 -2.59114
rclavicle -4.37326e-015 1.59028e-015
rhumerus -25.0627 1.52932 -83.4766
rradius 25.7089
rwrist -8.75457
rhand -21.6173 12.1811
rfingers 7.12502
rthumb 4.7783 -17.745
lclavicle -4.37326e-015 1.59028e-015
lhumerus -25.9645 -3.3377 92.5478
lradius 23.6454
lwrist -0.466653
lhand -11.5797 30.5148
lfingers 7.12502
lthumb 14.462 59.9908
rfemur -17.5779 1.76878 25.2872
rtibia 30.9218
rfoot -17.8094 -5.92169
rtoes 0.494999
lfemur -23.8377 2.65782 -12.2665
ltibia 39.0844
lfoot -19.7812 4.84743
ltoes -2.07713
59
root 0.954159 17.8094 -7.90712 9.87983 -4.87281 -7.71109
lowerback -4.08064 1.00101 1.18719
upperback 0.992031 1.09669 5.4534
thorax 3.2339 0.513289 5.06732
lowerneck -16.7427 0.704481 0.352858
upperneck 41.8146 4.04775 -6.98741
head 18.973 0.674687 -2.61961
rclavicle -3.97569e-015 5.725e-014
rhumerus -25.0874 1.44858 -83.4111
rradius 25.7222
rwrist -8.78507
rhand -21.6167 12.0849
rfingers 7.12502
rthumb 4.77889 -17.8412
lclavicle -3.97569e-015 5.725e-014
lhumerus -26.011 -3.45079 92.6423
lradius 23.5191
lwrist -0.191155
lhand -12.114 30.3125
lfingers 7.12502
lthumb 13.9471 59.8247
rfemur -17.6152 1.70643 25.2712
rtibia 30.9396
rfoot -17.832 -5.84342
rtoes 0.356272
lfemur -23.8537 2.82511 -12.3118
ltibia 39.0684
lfoot -19.7212 4.85014
ltoes -2.41535
60
root 0.960712 17.8109 -7.90046 9.97418 -4.88814 -7.80436
lowerback -4.12532 1.04942 1.27161
upperback 0.99347 1.15456 5.46089
thorax 3.25761 0.543552 5.03238
lowerneck -16.6355 0.676037 0.395366
upperneck 41.7882 3.98515 -6.99461
head 18.9221 0.658565 -2.64069
rclavicle -2.69353e-014 3.33958e-014
rhumerus -25.1798 1.42208 -83.3789
rradius 25.7729
rwrist -8.83879
rhand -21.5781 12.1886
rfingers 7.12502
rthumb 4.81611 -17.7366
lclavicle -2.69353e-014 3.33958e-014
lhumerus -26.1181 -3.62412 92.7066
lradius 23.5992
lwrist -0.272998
lhand -11.7955 30.4448
lfingers 7.12502
lthumb 14.2541 59.9357
rfemur -17.6724 1.67701 25.3458
rtibia 30.912
rfoot -17.8576 -5.79443
rtoes 0.145817
lfemur -23.9219 2.85532 -12.2273
ltibia 39.0698
lfoot -19.7114 4.80081
ltoes -2.17498
61
root 0.969644 17.8123 -7.88929 10.0706 -4.93303 -7.83728
lowerback -4.17833 1.04286 1.30319
upperback 0.97164 1.14224 5.47418
thorax 3.26625 0.537913 5.02862
lowerneck -16.5705 0.664843 0.345173
upperneck 41.9036 4.00152 -7.0156
head 18.9783 0.65361 -2.64505
rclavicle 1.78906e-014 3.18055e-015
rhumerus -25.2947 1.56126 -83.3856
rradius 25.8192
rwrist -8.81145
rhand -21.4823 12.2548
rfingers 7.12502
rthumb 4.90868 -17.6684
lclavicle 1.78906e-014 3.18055e-015
lhumerus -26.2931 -3.56721 92.7113
lradius 23.7181
lwrist -0.424571
lhand -11.352 30.7236
lfingers 7.12502
lthumb 14.6814 60.1838
rfemur -17.7047 1.70559 25.3257
rtibia 30.8551
rfoot -17.8661 -5.67398
rtoes 0.808997
lfemur -23.9737 2.7375 -12.2248
ltibia 39.0793
lfoot -19.7203 4.9539
ltoes -2.29991
